<svg version="1.1" id="logo" xmlns="http://www.w3.org/2000/svg" xmlns:xlink="http://www.w3.org/1999/xlink" x="0px" y="0px"
	 viewBox="0 0 100.43 100.43" style="enable-background:new 0 0 100.43 100.43;" xml:space="preserve">
	<style type="text/css">
		.st0{fill:#808182;}
		.st1{fill:#DABD27;}
		.st2{fill:#FFFFFF;}
	</style>
	<g>
		<path id="circle" class="st0" d="M100.43,50.21c0,27.73-22.48,50.21-50.21,50.21C22.48,100.43,0,77.95,0,50.21S22.48,0,50.21,0
			C77.95,0,100.43,22.48,100.43,50.21"/>
		<path id="one" class="st1" d="M21.03,34.47c0-0.94-0.76-1.7-1.7-1.7h-4.08c-0.55,0-0.99,0.44-0.99,0.99c0,0.55,0.44,0.99,0.99,0.99
			h3.79v33.03c0,0.55,0.44,0.99,0.99,0.99c0.55,0,0.99-0.44,0.99-0.99V34.47z"/>
		<path id="five" class="st1" d="M51.64,51.9c-0.61-1.51-1.45-2.81-2.53-3.89c-1.08-1.08-2.37-1.92-3.86-2.53
			c-1.5-0.61-3.13-0.91-4.91-0.91c-1.81,0-3.49,0.36-5.03,1.07c-1.55,0.71-2.84,1.8-3.89,3.26l-0.1-0.11l3.08-14.35h15.78
			c0.48,0,0.86-0.39,0.86-0.86c0-0.47-0.39-0.86-0.86-0.86H32.83l-3.37,16.74c-0.12,0.57,0.17,1.15,0.69,1.41
			c0.54,0.27,1.2,0.13,1.57-0.35c1-1.27,2.11-2.25,3.33-2.96c1.48-0.85,3.24-1.28,5.29-1.28c1.46,0,2.82,0.28,4.07,0.83
			c1.25,0.56,2.34,1.3,3.26,2.24c0.92,0.94,1.63,2.05,2.14,3.34c0.5,1.29,0.76,2.66,0.76,4.12c0,1.46-0.24,2.85-0.73,4.17
			c-0.49,1.32-1.18,2.47-2.09,3.45c-0.91,0.97-1.98,1.75-3.23,2.32c-1.25,0.57-2.64,0.86-4.17,0.86c-0.04,0-0.08-0.01-0.11-0.01v0.85
			c0.34,0.34,0.53,0.52,0.88,0.86c1.51-0.08,2.91-0.38,4.2-0.92c1.49-0.63,2.78-1.5,3.86-2.64c1.08-1.13,1.91-2.46,2.51-3.99
			c0.59-1.53,0.88-3.18,0.88-4.96C52.55,55.06,52.25,53.42,51.64,51.9"/>
		<path id="e-middle" class="st2" d="M76.15,48.92H62.06c-0.53,0-0.95,0.42-0.95,0.95c0,0.53,0.42,0.95,0.95,0.95h14.09
			c0.52,0,0.95-0.42,0.95-0.95C77.09,49.35,76.67,48.92,76.15,48.92"/>
		<path id="e-top" class="st2" d="M81.85,32.78H62.06c-0.52,0-0.95,0.42-0.95,0.95v0c0,0.52,0.42,0.95,0.95,0.95h19.79
			c0.52,0,0.95-0.42,0.95-0.95v0C82.79,33.2,82.37,32.78,81.85,32.78"/>
		<path id="e-bottom" class="st2" d="M61.11,67.41L61.11,67.41c0,0.52,0.42,0.95,0.95,0.95H82.1c0.52,0,0.95-0.43,0.95-0.95
			s-0.42-0.95-0.95-0.95H62.06C61.54,66.46,61.11,66.89,61.11,67.41"/>
	</g>
</svg>
