<svg id="Layer_1" data-name="Layer 1" xmlns="http://www.w3.org/2000/svg" viewBox="0 0 294.37 63.69"><defs><style>.cls-1{fill:#818181;}.cls-2{fill:#b99b2d;}</style></defs><path class="cls-1" d="M39.29,39.42a1.79,1.79,0,0,0-1.79-1.79H33.19a1,1,0,0,0-1,1h0a1,1,0,0,0,1,1h4V74.54a1,1,0,0,0,1,1h0a1,1,0,0,0,1-1Z" transform="translate(-32.15 -24.46)"/><path class="cls-1" d="M82,57.79A11.9,11.9,0,0,0,75.24,51a13.59,13.59,0,0,0-5.17-1,12.54,12.54,0,0,0-5.3,1.13,10.2,10.2,0,0,0-4.1,3.44l-.11-.11L63.8,39.39H80.44a.9.9,0,0,0,.91-.9h0a.91.91,0,0,0-.91-.91H62.15L58.6,55.22a1.36,1.36,0,0,0,.72,1.49h0A1.35,1.35,0,0,0,61,56.34a12.5,12.5,0,0,1,3.51-3.12,11.08,11.08,0,0,1,5.58-1.34,10.39,10.39,0,0,1,4.29.88,10.92,10.92,0,0,1,3.44,2.36,10.31,10.31,0,0,1,2.25,3.52,11.66,11.66,0,0,1,.8,4.34,12.69,12.69,0,0,1-.77,4.4,10.55,10.55,0,0,1-5.61,6.08,10.34,10.34,0,0,1-4.4.91H70v.89c.36.36.56.56.93.91a13,13,0,0,0,4.42-1,12,12,0,0,0,4.07-2.77A12.85,12.85,0,0,0,82,68.21,14.46,14.46,0,0,0,82.94,63,13.77,13.77,0,0,0,82,57.79Z" transform="translate(-32.15 -24.46)"/><path class="cls-1" d="M296.43,38.24h0a1,1,0,0,1,1.05-1h28a1,1,0,0,1,1,1h0a1,1,0,0,1-1,1H312.66V75.42a1,1,0,0,1-1.05,1h-.33a1,1,0,0,1-1-1V39.29H297.48A1,1,0,0,1,296.43,38.24Z" transform="translate(-32.15 -24.46)"/><path class="cls-1" d="M158.5,55H143a1,1,0,0,0-1,1h0a1,1,0,0,0,1,1H158.5a1,1,0,0,0,1-1h0A1,1,0,0,0,158.5,55Z" transform="translate(-32.15 -24.46)"/><rect class="cls-1" x="109.76" y="12.73" width="23.93" height="2.09" rx="1.04"/><rect class="cls-1" x="109.76" y="49.91" width="24.2" height="2.09" rx="1.04"/><rect class="cls-2" x="78.18" width="2.09" height="63.69" rx="1.04"/><path class="cls-1" d="M208.72,37.2h0a1,1,0,0,0-.92,1.32l8.33,22a.9.9,0,0,1-.84,1.21H198.07a1.78,1.78,0,0,0-1.66,1.12L191.5,75.12a1,1,0,0,0,.91,1.34h.47a1,1,0,0,0,.91-.62l4.54-11.41a.88.88,0,0,1,.83-.56h17A1.79,1.79,0,0,1,217.8,65l4.26,10.84a1,1,0,0,0,.91.62h.48a1,1,0,0,0,.91-1.34l-14.73-37.3A1,1,0,0,0,208.72,37.2Z" transform="translate(-32.15 -24.46)"/><path class="cls-1" d="M268,58.51a17,17,0,0,0-4.29-1.87c-1.6-.46-3.24-.85-4.92-1.19s-3.28-.67-4.9-1A20,20,0,0,1,249.62,53a8.38,8.38,0,0,1-3-2.39,6.09,6.09,0,0,1-1.16-3.85,7.29,7.29,0,0,1,1.05-4,8.06,8.06,0,0,1,2.67-2.59,11,11,0,0,1,3.52-1.34,17.57,17.57,0,0,1,3.54-.39,18.65,18.65,0,0,1,5,.63,11.6,11.6,0,0,1,3.93,1.9A9.23,9.23,0,0,1,267.74,44a5.14,5.14,0,0,1,.27.58,1.21,1.21,0,0,0,1.12.77h0a1.21,1.21,0,0,0,1.12-1.67q-.18-.44-.39-.84a10.83,10.83,0,0,0-3.22-3.77A13.62,13.62,0,0,0,262,37a22.88,22.88,0,0,0-5.75-.69,19.84,19.84,0,0,0-4.67.58,13.57,13.57,0,0,0-4.26,1.81,9.69,9.69,0,0,0-3.08,3.25A9.3,9.3,0,0,0,243,46.71a8.31,8.31,0,0,0,1.16,4.59,9.27,9.27,0,0,0,3,2.92A17,17,0,0,0,251.49,56c1.62.45,3.25.83,4.9,1.16s3.32.69,4.92,1.07a20.2,20.2,0,0,1,4.29,1.54,8.55,8.55,0,0,1,3,2.53,6.65,6.65,0,0,1,1.16,4,7.6,7.6,0,0,1-1.13,4.29,9,9,0,0,1-2.81,2.75,11.58,11.58,0,0,1-3.68,1.49,17.84,17.84,0,0,1-3.77.44h-.34a1,1,0,0,0-1.05,1h0a1,1,0,0,0,1,1h.37a20.68,20.68,0,0,0,4.7-.58,13.89,13.89,0,0,0,4.46-1.9,11.07,11.07,0,0,0,3.33-3.41,9.48,9.48,0,0,0,1.32-5.17,9,9,0,0,0-1.16-4.78A9.36,9.36,0,0,0,268,58.51Z" transform="translate(-32.15 -24.46)"/></svg>