<?xml version="1.0" encoding="utf-8"?>
<!-- Generator: Adobe Illustrator 25.3.1, SVG Export Plug-In . SVG Version: 6.00 Build 0)  -->
<svg version="1.1" id="Layer_1" xmlns="http://www.w3.org/2000/svg" xmlns:xlink="http://www.w3.org/1999/xlink" x="0px" y="0px"
	 viewBox="0 0 432 432" style="enable-background:new 0 0 432 432;" xml:space="preserve">
<style type="text/css">
	.st0{fill:#818181;}
	.st1{fill:#B99B2D;}
</style>
<g>
	<path class="st0" d="M63.7,164.79c0-2.96-2.4-5.35-5.35-5.35h-12.9c-1.73,0-3.13,1.4-3.13,3.13v0c0,1.73,1.4,3.13,3.13,3.13h11.99
		v104.31c0,1.73,1.4,3.13,3.13,3.13h0c1.73,0,3.13-1.4,3.13-3.13L63.7,164.79z"/>
	<path class="st0" d="M179.06,219.83c-1.92-4.78-4.59-8.87-7.99-12.27c-3.4-3.4-7.47-6.07-12.19-7.99
		c-4.72-1.92-9.88-2.88-15.49-2.88c-5.71,0-11.01,1.13-15.9,3.38c-4.89,2.25-8.98,5.68-12.27,10.3l-0.33-0.33l9.72-45.3h49.83
		c1.5,0,2.72-1.22,2.72-2.72l0,0c0-1.5-1.22-2.72-2.72-2.72h-54.77l-10.66,52.85c-0.36,1.8,0.53,3.63,2.18,4.45l0,0
		c1.7,0.85,3.78,0.41,4.96-1.09c3.15-4,6.66-7.11,10.53-9.35c4.67-2.69,10.24-4.04,16.72-4.04c4.61,0,8.9,0.88,12.85,2.64
		c3.95,1.76,7.38,4.12,10.3,7.08c2.91,2.96,5.16,6.48,6.76,10.54c1.59,4.06,2.39,8.4,2.39,13.01c0,4.61-0.77,9.01-2.31,13.18
		c-1.54,4.17-3.73,7.8-6.59,10.87c-2.86,3.08-6.26,5.52-10.22,7.33c-3.95,1.81-8.35,2.72-13.18,2.72c-0.13,0-0.24-0.01-0.37-0.02
		v2.67c1.09,1.07,1.69,1.65,2.78,2.72c4.78-0.24,9.19-1.21,13.24-2.91c4.72-1.98,8.79-4.75,12.19-8.32c3.4-3.57,6.04-7.77,7.91-12.6
		c1.87-4.83,2.8-10.05,2.8-15.65C181.94,229.79,180.98,224.6,179.06,219.83z"/>
</g>
<g>
	<path class="st0" d="M366.29,211.52h-46.57c-1.73,0-3.13,1.4-3.13,3.13l0,0c0,1.73,1.4,3.13,3.13,3.13h46.57
		c1.73,0,3.13-1.4,3.13-3.13l0,0C369.42,212.92,368.02,211.52,366.29,211.52z"/>
	<path class="st0" d="M385.13,158.14h-65.41c-1.73,0-3.13,1.4-3.13,3.13v0c0,1.73,1.4,3.13,3.13,3.13h65.41
		c1.73,0,3.13-1.4,3.13-3.13v0C388.26,159.55,386.86,158.14,385.13,158.14z"/>
	<path class="st0" d="M316.59,272.63L316.59,272.63c0,1.73,1.4,3.13,3.13,3.13h66.23c1.73,0,3.13-1.4,3.13-3.13v0
		c0-1.73-1.4-3.13-3.13-3.13h-66.23C317.99,269.5,316.59,270.9,316.59,272.63z"/>
	<path class="st1" d="M246.37,310.78L246.37,310.78c1.73,0,3.13-1.4,3.13-3.13V123.13c0-1.73-1.4-3.13-3.13-3.13h0
		c-1.73,0-3.13,1.4-3.13,3.13v184.52C243.25,309.38,244.65,310.78,246.37,310.78z"/>
</g>
</svg>
