<?xml version="1.0" encoding="utf-8"?>
<!-- Generator: Adobe Illustrator 25.4.1, SVG Export Plug-In . SVG Version: 6.00 Build 0)  -->
<svg version="1.1" id="Layer_1" xmlns="http://www.w3.org/2000/svg" xmlns:xlink="http://www.w3.org/1999/xlink" x="0px" y="0px"
	 viewBox="0 0 362 204" style="enable-background:new 0 0 362 204;" xml:space="preserve">
<style type="text/css">
	.st0{fill:#818181;}
	.st1{fill:#B99B2D;}
</style>
<g>
	<path class="st0" d="M28.7,52.8c0-3-2.4-5.4-5.3-5.4H10.5c-1.7,0-3.1,1.4-3.1,3.1l0,0c0,1.7,1.4,3.1,3.1,3.1h12V158
		c0,1.7,1.4,3.1,3.1,3.1l0,0c1.7,0,3.1-1.4,3.1-3.1L28.7,52.8z"/>
	<path class="st0" d="M144.1,107.8c-1.9-4.8-4.6-8.9-8-12.3c-3.4-3.4-7.5-6.1-12.2-8s-9.9-2.9-15.5-2.9c-5.7,0-11,1.1-15.9,3.4
		c-4.9,2.2-9,5.7-12.3,10.3L79.9,98l9.7-45.3h49.8c1.5,0,2.7-1.2,2.7-2.7l0,0c0-1.5-1.2-2.7-2.7-2.7H84.7L74,100.1
		c-0.4,1.8,0.5,3.6,2.2,4.4l0,0c1.7,0.9,3.8,0.4,5-1.1c3.2-4,6.7-7.1,10.5-9.4c4.7-2.7,10.2-4,16.7-4c4.6,0,8.9,0.9,12.9,2.6
		c3.9,1.8,7.4,4.1,10.3,7.1c2.9,3,5.2,6.5,6.8,10.5c1.6,4.1,2.4,8.4,2.4,13s-0.8,9-2.3,13.2s-3.7,7.8-6.6,10.9
		c-2.9,3.1-6.3,5.5-10.2,7.3c-3.9,1.8-8.4,2.7-13.2,2.7c-0.1,0-0.2,0-0.4,0v2.7c1.1,1.1,1.7,1.6,2.8,2.7c4.8-0.2,9.2-1.2,13.2-2.9
		c4.7-2,8.8-4.8,12.2-8.3c3.4-3.6,6-7.8,7.9-12.6c1.9-4.8,2.8-10.1,2.8-15.6C146.9,117.8,146,112.6,144.1,107.8z"/>
</g>
<g>
	<path class="st0" d="M331.3,99.5h-46.6c-1.7,0-3.1,1.4-3.1,3.1l0,0c0,1.7,1.4,3.1,3.1,3.1h46.6c1.7,0,3.1-1.4,3.1-3.1l0,0
		C334.4,100.9,333,99.5,331.3,99.5z"/>
	<path class="st0" d="M350.1,46.1h-65.4c-1.7,0-3.1,1.4-3.1,3.1l0,0c0,1.7,1.4,3.1,3.1,3.1h65.4c1.7,0,3.1-1.4,3.1-3.1l0,0
		C353.3,47.6,351.9,46.1,350.1,46.1z"/>
	<path class="st0" d="M281.6,160.6L281.6,160.6c0,1.7,1.4,3.1,3.1,3.1H351c1.7,0,3.1-1.4,3.1-3.1l0,0c0-1.7-1.4-3.1-3.1-3.1h-66.2
		C283,157.5,281.6,158.9,281.6,160.6z"/>
	<path class="st1" d="M211.4,198.8L211.4,198.8c1.7,0,3.1-1.4,3.1-3.1V11.1c0-1.7-1.4-3.1-3.1-3.1l0,0c-1.7,0-3.1,1.4-3.1,3.1v184.5
		C208.2,197.4,209.6,198.8,211.4,198.8z"/>
</g>
</svg>
