<?xml version="1.0" encoding="utf-8"?>
<!-- Generator: Adobe Illustrator 25.3.1, SVG Export Plug-In . SVG Version: 6.00 Build 0)  -->
<svg version="1.1" id="Layer_1" xmlns="http://www.w3.org/2000/svg" xmlns:xlink="http://www.w3.org/1999/xlink" x="0px" y="0px"
	 viewBox="0 0 32 32" style="enable-background:new 0 0 32 32;" xml:space="preserve">
<style type="text/css">
	.st0{fill:#818181;}
	.st1{fill:#DABD27;stroke:#DABD27;stroke-width:0.25;stroke-miterlimit:10;}
	.st2{fill:#FFFFFF;stroke:#FFFFFF;stroke-width:0.25;stroke-miterlimit:10;}
</style>
<circle class="st0" cx="16" cy="16" r="16"/>
<path class="st1" d="M6.7,10.98c0-0.3-0.24-0.54-0.54-0.54H4.85c-0.17,0-0.32,0.14-0.32,0.32l0,0c0,0.17,0.14,0.32,0.31,0.32
	c0,0,0,0,0,0h1.21V21.6c0,0.17,0.14,0.32,0.32,0.32l0,0c0.17,0,0.32-0.14,0.32-0.31c0,0,0,0,0,0L6.7,10.98z"/>
<path class="st1" d="M16.46,16.54c-0.36-0.94-1.1-1.68-2.04-2.04c-0.5-0.2-1.03-0.3-1.56-0.29c-0.55-0.01-1.1,0.11-1.6,0.34
	c-0.5,0.23-0.92,0.59-1.24,1.04l-0.03-0.03l0.98-4.57h5.03c0.15,0,0.27-0.12,0.27-0.27c0,0,0,0,0,0l0,0c0-0.15-0.12-0.27-0.27-0.27
	c0,0,0,0,0,0h-5.53l-1.08,5.33c-0.04,0.18,0.05,0.37,0.22,0.45l0,0c0.17,0.09,0.38,0.04,0.5-0.11c0.29-0.38,0.65-0.7,1.06-0.94
	c0.52-0.28,1.1-0.42,1.69-0.41c0.45,0,0.89,0.09,1.3,0.27c0.39,0.17,0.74,0.41,1.04,0.72c0.3,0.3,0.53,0.67,0.68,1.06
	c0.16,0.42,0.24,0.86,0.24,1.31c0,0.45-0.08,0.9-0.23,1.33c-0.29,0.82-0.9,1.48-1.7,1.84c-0.42,0.19-0.87,0.28-1.33,0.27h-0.04v0.27
	l0.28,0.27c0.46-0.02,0.91-0.12,1.34-0.29c0.46-0.19,0.88-0.48,1.23-0.84c0.35-0.37,0.62-0.8,0.8-1.28c0.19-0.5,0.29-1.04,0.28-1.58
	C16.75,17.57,16.65,17.04,16.46,16.54z"/>
<path class="st2" d="M24.26,15.59h-4.49c-0.17,0-0.3,0.14-0.3,0.3c0,0,0,0,0,0l0,0c0,0.17,0.14,0.3,0.3,0.3c0,0,0,0,0,0h4.49
	c0.17,0,0.3-0.14,0.3-0.3l0,0C24.57,15.72,24.43,15.59,24.26,15.59z"/>
<path class="st2" d="M19.77,10.44h6.31c0.17,0,0.3,0.14,0.3,0.3v0c0,0.17-0.14,0.3-0.3,0.3h-6.31c-0.17,0-0.3-0.14-0.3-0.3v0
	C19.47,10.58,19.61,10.44,19.77,10.44z"/>
<path class="st2" d="M19.77,21.18h6.38c0.17,0,0.3,0.14,0.3,0.3v0c0,0.17-0.14,0.3-0.3,0.3h-6.38c-0.17,0-0.3-0.14-0.3-0.3v0
	C19.47,21.31,19.61,21.18,19.77,21.18z"/>
</svg>
